<?xml version="1.0" standalone="no"?>
<!DOCTYPE svg PUBLIC "-//W3C//DTD SVG 1.1//EN" "http://www.w3.org/Graphics/SVG/1.1/DTD/svg11.dtd">
<svg width="10px" height="18px" viewBox="0 0 10 18" version="1.1" xmlns="http://www.w3.org/2000/svg" xmlns:xlink="http://www.w3.org/1999/xlink">
  <g id="Page-1" stroke="none" stroke-width="1" fill="none" fill-rule="evenodd">
    <g id="学习-copy-5" transform="translate(-16.000000, -33.000000)" fill="#333333">
      <g id="分组" transform="translate(15.000000, 32.500000)">
        <path d="M5.75817196,-0.342631447 L5.75817196,-0.342631447 C6.33765564,-0.342631447 6.80741997,0.127132891 6.80741997,0.706616569 L6.80741997,11.1990967 C6.80741997,11.7785804 6.33765564,12.2483447 5.75817196,12.2483447 L5.75817196,12.2483447 C5.17868828,12.2483447 4.70892394,11.7785804 4.70892394,11.1990967 L4.70892394,0.706616569 C4.70892394,0.127132891 5.17868828,-0.342631447 5.75817196,-0.342631447 Z" id="矩形" transform="translate(5.758172, 5.952857) rotate(-315.000000) translate(-5.758172, -5.952857) "></path>
        <path d="M5.75817196,7.07667243 L5.75817196,7.07667243 C6.33765564,7.07667243 6.80741997,7.54643676 6.80741997,8.12592044 L6.80741997,18.6184006 C6.80741997,19.1978843 6.33765564,19.6676486 5.75817196,19.6676486 L5.75817196,19.6676486 C5.17868828,19.6676486 4.70892394,19.1978843 4.70892394,18.6184006 L4.70892394,8.12592044 C4.70892394,7.54643676 5.17868828,7.07667243 5.75817196,7.07667243 Z" id="矩形" transform="translate(5.758172, 13.372161) rotate(-45.000000) translate(-5.758172, -13.372161) "></path>
      </g>
    </g>
  </g>
</svg>
